<svg width="154" height="45" viewBox="0 0 154 45" fill="none" xmlns="http://www.w3.org/2000/svg">
<g clip-path="url(#clip0_354_3660)">
<path d="M41.0859 13.8081L40.9891 13.5049C40.9891 13.5049 40.9891 13.4968 40.9858 13.4936L40.8938 13.2033H40.8922C40.1318 10.9355 39.0017 8.87746 37.5309 7.08553C34.0566 2.83875 28.9404 0.403269 22.7424 0.0387532C17.0579 -0.295118 11.5655 1.56456 7.27755 5.27585C2.98954 8.98875 0.420939 14.1113 0.0431553 19.6936C-0.145736 22.5065 0.272408 25.2759 1.28467 27.9291C2.26142 30.4823 3.74349 32.8178 5.69376 34.8662C7.63918 36.9097 9.94948 38.5613 12.5584 39.7726C15.2594 41.0291 18.1622 41.7565 21.1813 41.9339C21.2023 41.9339 21.2232 41.9355 21.2458 41.9355C21.5122 41.9355 21.7641 41.8355 21.9966 41.6371C21.9966 41.6371 22.0046 41.6291 22.0095 41.6259L22.0563 41.5823V41.5775C22.2533 41.3888 22.363 41.1468 22.3824 40.8581L22.3937 40.6952L21.2329 36.6033C21.1506 36.1 20.7066 35.6984 20.1948 35.6678C16.2184 35.3823 12.5875 33.6065 9.97208 30.6694C7.35181 27.7291 6.05217 23.9629 6.31533 20.0678C6.5801 16.1307 8.39475 12.5226 11.4219 9.9065C14.4474 7.29198 18.3237 5.98069 22.3356 6.21617C26.404 6.45488 30.0414 8.03876 32.5745 10.6742C35.135 13.3404 36.4105 16.9468 36.1586 20.8259C36.0617 22.3291 35.5532 24.6581 34.4118 26.6839C32.8296 29.5 30.8277 30.2888 29.4279 30.4549C28.1493 30.6081 27.1015 30.4307 26.3169 29.9307C25.2416 29.2452 24.541 27.8904 24.2358 25.9017C23.7999 23.0565 23.9549 21.3952 24.2423 19.442L30.9536 17.8549C31.5445 17.7146 31.9675 17.2226 32.0078 16.6291L32.2419 13.1726C32.271 12.7307 32.0772 12.3033 31.7237 12.0275C31.3992 11.7775 30.9859 11.6823 30.5839 11.7662H30.5806L11.5171 16.2759C10.9262 16.4162 10.5032 16.9081 10.4629 17.5017L10.2288 20.9581C10.1997 21.4 10.3918 21.8275 10.747 22.1033C11.0812 22.3613 11.5107 22.4533 11.9256 22.3549L18.1735 20.8759C18.0234 23.4629 17.9491 25.9388 18.3931 27.9904C18.8532 30.1194 19.8639 32.0613 21.241 33.4549C22.9265 35.163 25.1496 36.0662 27.6665 36.0662H27.6875C31.9174 36.0581 35.5338 34.3952 38.1444 31.2581C40.474 28.4597 41.8286 24.6436 41.9626 20.5146C42.0385 18.2323 41.7414 15.9759 41.0843 13.8017V13.8065L41.0859 13.8081Z" fill="#724CF9"/>
<path d="M113.06 16.9726C114.875 14.9468 117.113 13.9888 119.993 13.9888C122.873 13.9888 124.899 15.0549 126.073 17.0791H126.286V15.2678C126.286 14.7355 126.499 14.5226 126.927 14.5226H131.833C132.261 14.5226 132.474 14.7355 132.474 15.2678V34.6613C132.474 37.8581 131.514 40.4146 129.487 42.2275C127.46 44.0388 124.688 44.9984 121.168 44.9984C118.181 44.9984 115.727 44.3581 113.914 42.9726C112.1 41.5872 110.928 39.7775 110.608 37.5388V37.3259C110.608 37.0065 110.821 36.7936 111.249 36.7936H116.155C116.475 36.7936 116.796 37.0065 116.901 37.4339C117.434 38.9259 118.821 39.6726 121.168 39.6726C124.475 39.6726 126.181 38.0743 126.181 34.771V32.213H125.968C124.794 34.2388 122.766 35.1968 119.781 35.1968C117.008 35.1968 114.66 34.2388 112.849 32.3194C111.036 30.4017 110.075 27.8436 110.075 24.8597C110.288 21.5565 111.141 18.9984 113.062 16.9743L113.06 16.9726ZM116.9 24.7517C116.9 26.1372 117.327 27.3097 118.178 28.163C119.032 29.1226 120.206 29.5484 121.591 29.5484C122.976 29.5484 124.152 29.121 125.004 28.271C125.858 27.313 126.283 26.2452 126.283 24.7549C126.283 23.2646 125.855 22.1968 125.004 21.2388C124.15 20.2791 122.976 19.8533 121.591 19.8533C120.206 19.8533 119.031 20.2791 118.178 21.2388C117.324 22.1984 116.9 23.263 116.9 24.7549V24.7517Z" fill="white"/>
<path d="M136.187 30.2936L145.36 20.1694H136.828C136.402 20.1694 136.187 19.9565 136.187 19.5291V15.2662C136.187 14.7339 136.4 14.521 136.828 14.521H153.362C153.788 14.521 154.003 14.7339 154.003 15.2662V18.4629C154.003 18.7823 153.896 19.1033 153.683 19.3162L144.51 29.4404H153.363C153.789 29.4404 154.004 29.6533 154.004 30.1855V34.4484C154.004 34.8758 153.791 35.0887 153.363 35.0887H136.512C135.979 35.0887 135.766 34.8758 135.766 34.4484V31.1452C135.766 30.9323 135.874 30.6129 136.192 30.292H136.19L136.187 30.2936Z" fill="white"/>
<path d="M93.0077 28.3742C93.8617 29.3129 94.9983 29.7807 96.4206 29.7807C97.843 29.7807 98.9812 29.3258 99.8336 28.4162C100.715 27.4775 101.156 26.2855 101.156 24.8355C101.156 23.3855 100.715 22.1645 99.8336 21.2549C98.9796 20.3468 97.843 19.8904 96.4206 19.8904C94.9983 19.8904 93.8601 20.3452 93.0077 21.2549C92.1536 22.1936 91.729 23.3855 91.729 24.8355C91.729 26.2855 92.1553 27.4645 93.0077 28.3726V28.3742ZM87.8463 17.0371C89.6674 14.9904 92.0003 13.9678 94.8433 13.9678C97.6864 13.9678 99.7351 14.9904 100.901 17.0371H101.03V15.2468C101.03 14.7629 101.258 14.5226 101.713 14.5226H106.661C107.116 14.5226 107.344 14.7629 107.344 15.2468V34.4275C107.344 34.8823 107.116 35.1097 106.661 35.1097H101.713C101.258 35.1097 101.03 34.8823 101.03 34.4275V32.5952H100.944C99.7497 34.642 97.7154 35.6645 94.8433 35.6645C91.9712 35.6645 89.6658 34.642 87.8463 32.5952C86.0251 30.5484 85.1162 27.9629 85.1162 24.8371C85.1162 21.7113 86.0251 19.0839 87.8463 17.0371Z" fill="white"/>
<path d="M84.877 33.9259C83.8083 32.5162 83.0349 30.9275 82.5619 29.163C82.5135 28.9872 82.3326 28.8791 82.1551 28.9291L82.1357 28.9339C81.879 29.0081 81.6126 29.0726 81.3559 29.1146C80.8441 29.2097 80.3113 29.221 79.8092 29.071C79.2442 28.9113 78.6791 28.5484 78.4111 28.0065C78.2723 27.7291 78.2303 27.421 78.2303 27.1017V20.1436H82.2729C82.4214 20.1436 82.5506 20.0436 82.5893 19.9001C83.0527 18.2178 83.7857 16.6984 84.7882 15.3436C84.9497 15.1242 84.7979 14.8162 84.5251 14.8162H78.2287L78.2384 8.27425C78.24 7.1807 77.352 6.29199 76.2574 6.29199H71.4221C71.0573 6.29199 70.7618 6.58715 70.7618 6.95167V14.8162H64.1974L64.2071 8.27425C64.2087 7.1807 63.3208 6.29199 62.2262 6.29199H57.3909C57.026 6.29199 56.7306 6.58715 56.7306 6.95167V14.8162H52.4845C52.1213 14.8162 51.8242 15.113 51.8242 15.4759V19.4855C51.8242 19.8484 52.1213 20.1452 52.4845 20.1452H56.7306V26.5388C56.7306 28.4565 57.4764 30.2694 58.6502 31.5468C61.3511 34.971 66.4787 35.8694 70.6843 34.4372C70.8974 34.3646 70.9814 34.1065 70.8442 33.9259C69.7738 32.5162 69.0021 30.9275 68.529 29.163C68.4806 28.9872 68.2998 28.8791 68.1222 28.9291L68.1028 28.9339C67.8461 29.0081 67.5797 29.0726 67.323 29.1146C66.8112 29.2097 66.2785 29.221 65.7764 29.071C65.2113 28.9113 64.6463 28.5484 64.3783 28.0065C64.2394 27.7291 64.1974 27.421 64.1974 27.1017V20.1436H70.7618V26.5372C70.7618 28.4549 71.5077 30.2678 72.6814 31.5452C75.3824 34.9694 80.5083 35.8678 84.7156 34.4355C84.9287 34.363 85.0126 34.1049 84.8754 33.9243L84.877 33.9259Z" fill="white"/>
</g>
<defs>
<clipPath id="clip0_354_3660">
<rect width="154" height="45" fill="white"/>
</clipPath>
</defs>
</svg>
